# xmcd CD database file
#
# Track frame offsets:
#	150
#	17777
#	39714
#	63310
#	76378
#	98011
#	118254
#	136313
#	155323
#	167973
#	180583
#	200533
#	222032
#	246130
#	255957
#	269248
#
# Disc length: 3806 seconds
#
# Revision: 0
# Processed by: cddbd v1.5.1PL0 Copyright (c) Steve Scherf et al.
# Submitted via: CDex 1.51
#
DISCID=e00edc10
DTITLE=Janet Planet - The Consequense of 2
DYEAR=2000
DGENRE=Jazz
TTITLE0=The Waters of March
TTITLE1=Live for Life
TTITLE2=Tea for Two
TTITLE3=Small World
TTITLE4=Elis
TTITLE5=How I Love the Blues
TTITLE6=Just the Two of Us
TTITLE7=Lush Life
TTITLE8=One Note Samba
TTITLE9=If I Were a Bell
TTITLE10=Let Me
TTITLE11=September Song
TTITLE12=Takes My Breath Away
TTITLE13=Happy Talk
TTITLE14=Do Nothing Till You Hear It From Me
TTITLE15=I'll Be Seeing You
EXTD=YEAR: 2000
EXTT0=
EXTT1=
EXTT2=
EXTT3=
EXTT4=
EXTT5=
EXTT6=
EXTT7=
EXTT8=
EXTT9=
EXTT10=
EXTT11=
EXTT12=
EXTT13=
EXTT14=
EXTT15=
PLAYORDER=
